<?xml version="1.0" encoding="utf-8"?>
<!-- Generator: Adobe Illustrator 16.0.0, SVG Export Plug-In . SVG Version: 6.00 Build 0)  -->
<!DOCTYPE svg PUBLIC "-//W3C//DTD SVG 1.0//EN" "http://www.w3.org/TR/2001/REC-SVG-20010904/DTD/svg10.dtd">
<svg version="1.0" id="Layer_1" xmlns="http://www.w3.org/2000/svg" xmlns:xlink="http://www.w3.org/1999/xlink" x="0px" y="0px"
	 width="100px" height="100px" viewBox="0 0 100 100" enable-background="new 0 0 100 100" xml:space="preserve">
<path fill="#b4975a" d="M30,36.666H10v26.668h20l26.666,13.333V23.333L30,36.666z M23.333,56.667h-6.666V43.333h6.666V56.667z M49.999,65.879
	L30,55.879V44.12l19.999-10V65.879z"/>
<path fill="#b4975a" d="M70.91,36.096c7.666,7.665,7.666,20.141-0.003,27.81l-4.714-4.713c2.448-2.451,3.799-5.717,3.799-9.194
	c0-3.478-1.348-6.741-3.795-9.188L70.91,36.096z"/>
<path fill="#b4975a" d="M80.337,26.668c12.891,12.889,12.878,33.785,0,46.666l-4.713-4.714c10.264-10.271,10.267-26.974,0-37.239L80.337,26.668z"/>
</svg>
